<?xml version="1.0" encoding="UTF-8"?>
<svg id="katman_2" data-name="katman 2" xmlns="http://www.w3.org/2000/svg" viewBox="0 0 629.79 740.23">
  <defs>
    <style>
      .cls-1 {
        fill: none;
      }

      .cls-2 {
        fill: #fe0000;
      }

      .cls-3 {
        fill: #26c1ec;
      }

      .cls-4 {
        fill: #fdfdfd;
      }
    </style>
  </defs>
  <g id="katman_1" data-name="katman 1">
    <g>
      <g>
        <path d="M120.84,30.33l314.74-.33c42.01,6.29,65.31,35.93,67.45,77.55,2.39,46.27-1.75,94.5,0,140.97-3.66,32.3-27.35,57.82-58.74,65.26-109.6,5.17-219.92.79-329.79,2.29-36.35-2.91-66.39-32.18-69.33-68.67-3.44-42.58-.2-94.34-.09-137.91.13-47.79,27.7-76.32,75.75-79.16ZM114.82,41.31c-30.84,3.65-55.96,27.95-58.76,59.24-4.15,46.39,2.97,98.85.11,145.86,3.54,30.5,27.63,54.83,58.34,57.66h319.07c31.59-3.17,55.23-28.26,58.45-59.55-2.78-46.69,3.77-97.79,0-143.97-2.64-32.37-29.71-56.79-61.45-59.55l-315.76.31Z"/>
        <path class="cls-3" d="M114.82,41.31l315.76-.31c31.74,2.76,58.8,27.18,61.45,59.55,3.77,46.18-2.78,97.28,0,143.97-3.22,31.3-26.86,56.39-58.45,59.55H114.5c-30.71-2.83-54.8-27.15-58.34-57.66,2.87-47.02-4.26-99.48-.11-145.86,2.8-31.29,27.92-55.59,58.76-59.24Z"/>
        <path class="cls-1" d="M503.03,107.55c-2.14-41.61-25.45-71.25-67.45-77.55l-314.74.33c-48.05,2.85-75.63,31.37-75.75,79.16-.12,43.58-3.35,95.33.09,137.91,2.95,36.48,32.98,65.75,69.33,68.67,109.87-1.5,220.18,2.87,329.79-2.29,31.38-7.44,55.07-32.97,58.74-65.26-1.74-46.48,2.39-94.7,0-140.97Z"/>
        <path class="cls-4" d="M55.5,0C24.14,4.45,2.15,29.01,0,60.5l.17,230.91c3.39,32.99,28.31,56.55,61.32,58.68,138.2-1.56,276.82,2.92,414.77-2.32,60.24-9.29,79.93-54.15,93.48-107.52,5.49-21.63,8.13-59.36,23.64-74.86,9.59-9.58,23.19-13.79,36.4-12.82V.24L55.5,0ZM503.03,248.52c-3.66,32.3-27.35,57.82-58.74,65.26-109.6,5.17-219.92.79-329.79,2.29-36.35-2.91-66.39-32.18-69.33-68.67-3.44-42.58-.2-94.34-.09-137.91.13-47.79,27.7-76.32,75.75-79.16l314.74-.33c42.01,6.29,65.31,35.93,67.45,77.55,2.39,46.27-1.75,94.5,0,140.97Z"/>
      </g>
      <g>
        <path d="M560.9,441.54c11.14,11.05,19.31,27.5,21.34,43.16-1.47,49.59,5.37,105.98,1,154.97-2.74,30.74-29.04,57.85-58.74,64.26-109.59,5.13-219.88.86-329.73,2.24-38-3.45-67.12-33.31-69.55-71.45-2.71-42.4-.32-92.01.09-135.08.4-42.3,21.3-69.65,63.58-78.34,108.85-2.59,217.96-.37,326.91-1.16,16.87,2.09,33.04,9.41,45.11,21.39ZM199.04,431.49c-33.4,1.12-59.88,27.14-62.78,60.22,2.35,46.08-3.18,95.32-.06,141.03,2.21,32.35,25.41,57.19,57.5,61.5l322.03-.04c31.09-4.4,54.07-29.17,56.55-60.45-2.75-46.16,3.56-96.34-.05-142.02-2.73-34.56-31.1-59.87-65.44-60.56l-307.75.34Z"/>
        <path class="cls-2" d="M199.04,431.49l307.75-.34c34.35.69,62.71,26,65.44,60.56,3.61,45.68-2.7,95.86.05,142.02-2.48,31.29-25.46,56.05-56.55,60.45l-322.03.04c-32.09-4.31-55.29-29.15-57.5-61.5-3.13-45.7,2.41-94.95.06-141.03,2.9-33.08,29.38-59.1,62.78-60.22Z"/>
        <path class="cls-1" d="M582.23,484.71c-2.03-15.66-10.19-32.11-21.34-43.16-12.07-11.97-28.24-19.29-45.11-21.39-108.95.79-218.07-1.43-326.91,1.16-42.28,8.69-63.17,36.04-63.58,78.34-.41,43.07-2.8,92.68-.09,135.08,2.44,38.14,31.56,68,69.55,71.45,109.85-1.38,220.15,2.89,329.73-2.24,29.7-6.41,56-33.53,58.74-64.26,4.37-48.99-2.47-105.38-1-154.97Z"/>
        <path class="cls-4" d="M628.3,451.64c-1.93-30.96-21.61-54.64-52-61l-576.3-.24v152.32c12.27.9,24.2,6.25,32.27,15.95,12.76,15.32,15.31,48.77,20.27,68.73,16.85,67.81,39.99,109.01,116.17,112.83l406.03-1.05c30.68-5.25,51.56-29.51,53.56-60.44,4.77-73.83-3.71-152.73,0-227.1ZM583.23,639.68c-2.74,30.74-29.04,57.85-58.74,64.26-109.59,5.13-219.88.86-329.73,2.24-38-3.45-67.12-33.31-69.55-71.45-2.71-42.4-.32-92.01.09-135.08.4-42.3,21.3-69.65,63.58-78.34,108.85-2.59,217.96-.37,326.91-1.16,16.87,2.09,33.04,9.41,45.11,21.39,11.14,11.05,19.31,27.5,21.34,43.16-1.47,49.59,5.37,105.98,1,154.97Z"/>
      </g>
    </g>
  </g>
</svg>